<svg width="16" height="18" viewBox="0 0 16 18" fill="none" xmlns="http://www.w3.org/2000/svg">
<path d="M11.7429 11.524C12.7112 10.0976 13.1449 8.32921 12.9572 6.5725C12.7695 4.81579 11.9743 3.20036 10.7307 2.04939C9.48701 0.898422 7.88665 0.296801 6.24973 0.364888C4.61282 0.432975 3.06008 1.16575 1.90217 2.41661C0.744249 3.66747 0.0665484 5.34417 0.00464653 7.11126C-0.0572553 8.87835 0.501207 10.6055 1.56831 11.9472C2.6354 13.2889 4.13244 14.1462 5.75992 14.3475C7.38739 14.5488 9.02528 14.0794 10.3459 13.0331H10.3449C10.3749 13.0763 10.4069 13.1173 10.4429 13.1573L14.2929 17.3133C14.4804 17.5159 14.7348 17.6297 15 17.6298C15.2653 17.6299 15.5198 17.5163 15.7074 17.3139C15.895 17.1114 16.0005 16.8369 16.0006 16.5505C16.0007 16.2641 15.8954 15.9895 15.7079 15.7869L11.8579 11.6309C11.8221 11.5918 11.7837 11.5557 11.7429 11.5229V11.524ZM12.0009 7.3744C12.0009 8.15409 11.8586 8.92614 11.5822 9.64648C11.3058 10.3668 10.9007 11.0213 10.39 11.5727C9.87926 12.124 9.27295 12.5613 8.60566 12.8597C7.93837 13.1581 7.22317 13.3116 6.5009 13.3116C5.77863 13.3116 5.06343 13.1581 4.39614 12.8597C3.72885 12.5613 3.12253 12.124 2.61181 11.5727C2.10109 11.0213 1.69596 10.3668 1.41956 9.64648C1.14316 8.92614 1.0009 8.15409 1.0009 7.3744C1.0009 5.79975 1.58036 4.2896 2.61181 3.17615C3.64326 2.0627 5.04221 1.43718 6.5009 1.43718C7.95959 1.43718 9.35853 2.0627 10.39 3.17615C11.4214 4.2896 12.0009 5.79975 12.0009 7.3744Z" fill="#5C2E8F"/>
</svg>
