<svg width="16" height="18" viewBox="0 0 16 18" fill="none" xmlns="http://www.w3.org/2000/svg">
<path d="M8 8.99565C9.06087 8.99565 10.0783 8.54072 10.8284 7.73094C11.5786 6.92116 12 5.82286 12 4.67766C12 3.53246 11.5786 2.43417 10.8284 1.62439C10.0783 0.814609 9.06087 0.35968 8 0.35968C6.93913 0.35968 5.92172 0.814609 5.17157 1.62439C4.42143 2.43417 4 3.53246 4 4.67766C4 5.82286 4.42143 6.92116 5.17157 7.73094C5.92172 8.54072 6.93913 8.99565 8 8.99565ZM10.6667 4.67766C10.6667 5.44113 10.3857 6.17333 9.88562 6.71318C9.38552 7.25303 8.70724 7.55632 8 7.55632C7.29276 7.55632 6.61448 7.25303 6.11438 6.71318C5.61428 6.17333 5.33333 5.44113 5.33333 4.67766C5.33333 3.9142 5.61428 3.182 6.11438 2.64215C6.61448 2.10229 7.29276 1.79901 8 1.79901C8.70724 1.79901 9.38552 2.10229 9.88562 2.64215C10.3857 3.182 10.6667 3.9142 10.6667 4.67766ZM16 16.1923C16 17.6316 14.6667 17.6316 14.6667 17.6316H1.33333C1.33333 17.6316 0 17.6316 0 16.1923C0 14.753 1.33333 10.435 8 10.435C14.6667 10.435 16 14.753 16 16.1923ZM14.6667 16.1865C14.6653 15.8325 14.4613 14.7674 13.5573 13.7915C12.688 12.853 11.052 11.8743 8 11.8743C4.94667 11.8743 3.312 12.853 2.44267 13.7915C1.53867 14.7674 1.336 15.8325 1.33333 16.1865H14.6667Z" fill="#5C2E8F"/>
</svg>
