<svg width="15" height="17" viewBox="0 0 15 17" fill="none" xmlns="http://www.w3.org/2000/svg">
<path d="M0 0.899428C0 0.756278 0.0526784 0.618991 0.146447 0.517769C0.240215 0.416546 0.367392 0.35968 0.5 0.35968H2C2.11153 0.359713 2.21985 0.4 2.30773 0.474133C2.39561 0.548267 2.45801 0.65199 2.485 0.768809L2.89 2.51867H14.5C14.5734 2.51875 14.6459 2.53627 14.7124 2.57C14.7788 2.60374 14.8375 2.65285 14.8844 2.71385C14.9313 2.77485 14.9651 2.84625 14.9835 2.92296C15.002 2.99968 15.0045 3.07983 14.991 3.15773L13.491 11.7937C13.4696 11.9174 13.4087 12.0291 13.3191 12.1095C13.2294 12.1899 13.1166 12.234 13 12.2341H4C3.88343 12.234 3.77057 12.1899 3.68091 12.1095C3.59126 12.0291 3.53045 11.9174 3.509 11.7937L2.01 3.17393L1.61 1.43918H0.5C0.367392 1.43918 0.240215 1.38231 0.146447 1.28109C0.0526784 1.17987 0 1.04258 0 0.899428ZM3.102 3.59817L4.415 11.1546H12.585L13.898 3.59817H3.102ZM5 12.2341C4.46957 12.2341 3.96086 12.4616 3.58579 12.8665C3.21071 13.2714 3 13.8205 3 14.3931C3 14.9657 3.21071 15.5149 3.58579 15.9198C3.96086 16.3247 4.46957 16.5521 5 16.5521C5.53043 16.5521 6.03914 16.3247 6.41421 15.9198C6.78929 15.5149 7 14.9657 7 14.3931C7 13.8205 6.78929 13.2714 6.41421 12.8665C6.03914 12.4616 5.53043 12.2341 5 12.2341ZM12 12.2341C11.4696 12.2341 10.9609 12.4616 10.5858 12.8665C10.2107 13.2714 10 13.8205 10 14.3931C10 14.9657 10.2107 15.5149 10.5858 15.9198C10.9609 16.3247 11.4696 16.5521 12 16.5521C12.5304 16.5521 13.0391 16.3247 13.4142 15.9198C13.7893 15.5149 14 14.9657 14 14.3931C14 13.8205 13.7893 13.2714 13.4142 12.8665C13.0391 12.4616 12.5304 12.2341 12 12.2341ZM5 13.3136C5.26522 13.3136 5.51957 13.4274 5.70711 13.6298C5.89464 13.8323 6 14.1068 6 14.3931C6 14.6794 5.89464 14.954 5.70711 15.1564C5.51957 15.3589 5.26522 15.4726 5 15.4726C4.73478 15.4726 4.48043 15.3589 4.29289 15.1564C4.10536 14.954 4 14.6794 4 14.3931C4 14.1068 4.10536 13.8323 4.29289 13.6298C4.48043 13.4274 4.73478 13.3136 5 13.3136ZM12 13.3136C12.2652 13.3136 12.5196 13.4274 12.7071 13.6298C12.8946 13.8323 13 14.1068 13 14.3931C13 14.6794 12.8946 14.954 12.7071 15.1564C12.5196 15.3589 12.2652 15.4726 12 15.4726C11.7348 15.4726 11.4804 15.3589 11.2929 15.1564C11.1054 14.954 11 14.6794 11 14.3931C11 14.1068 11.1054 13.8323 11.2929 13.6298C11.4804 13.4274 11.7348 13.3136 12 13.3136Z" fill="#5C2E8F"/>
</svg>
